<svg width="454" height="158" viewBox="0 0 454 158" fill="none" xmlns="http://www.w3.org/2000/svg">
<g clip-path="url(#clip0_1468_96)">
<path d="M222.614 41.7015H205.737C204.282 41.7015 203.103 42.881 203.103 44.3359V59.7813C203.103 61.2362 204.282 62.4156 205.737 62.4156H222.614C224.069 62.4156 225.248 61.2362 225.248 59.7813V44.3359C225.248 42.881 224.069 41.7015 222.614 41.7015Z" fill="#7592FF" stroke="#7592FF" stroke-width="0.752667"/>
<path d="M266.263 41.7015H249.386C247.931 41.7015 246.752 42.881 246.752 44.3359V59.7813C246.752 61.2362 247.931 62.4156 249.386 62.4156H266.263C267.718 62.4156 268.897 61.2362 268.897 59.7813V44.3359C268.897 42.881 267.718 41.7015 266.263 41.7015Z" fill="#7592FF" stroke="#7592FF" stroke-width="0.752667"/>
<path d="M277.712 98.2308H260.835C259.38 98.2308 258.201 99.4103 258.201 100.865V116.311C258.201 117.766 259.38 118.945 260.835 118.945H277.712C279.167 118.945 280.346 117.766 280.346 116.311V100.865C280.346 99.4103 279.167 98.2308 277.712 98.2308Z" fill="#7592FF" stroke="#7592FF" stroke-width="0.752667"/>
<path d="M211.165 98.2308H194.288C192.833 98.2308 191.654 99.4103 191.654 100.865V116.311C191.654 117.766 192.833 118.945 194.288 118.945H211.165C212.62 118.945 213.799 117.766 213.799 116.311V100.865C213.799 99.4103 212.62 98.2308 211.165 98.2308Z" fill="#7592FF" stroke="#7592FF" stroke-width="0.752667"/>
<path d="M262.327 82.847H210.03C208.575 82.847 207.396 84.0265 207.396 85.4814V100.927C207.396 102.382 208.575 103.561 210.03 103.561H262.327C263.782 103.561 264.961 102.382 264.961 100.927V85.4814C264.961 84.0265 263.782 82.847 262.327 82.847Z" fill="#7592FF" stroke="#7592FF" stroke-width="0.752667"/>
<path d="M291.231 15.167H180.769C165.305 15.167 152.769 27.703 152.769 43.167V117.478C152.769 132.942 165.305 145.478 180.769 145.478H291.231C306.695 145.478 319.231 132.942 319.231 117.478V43.167C319.231 27.703 306.695 15.167 291.231 15.167Z" stroke="#7592FF" stroke-width="24"/>
<path d="M26.4033 0.522461H6.30324C2.84444 0.522461 0.0405273 3.32637 0.0405273 6.78517V71.8555C0.0405273 75.3143 2.84444 78.1182 6.30324 78.1182H26.4033C29.8621 78.1182 32.666 75.3143 32.666 71.8555V6.78517C32.666 3.32637 29.8621 0.522461 26.4033 0.522461Z" fill="#7592FF"/>
<path d="M26.4033 0.522461H6.30324C2.84444 0.522461 0.0405273 3.32637 0.0405273 6.78517V71.8555C0.0405273 75.3143 2.84444 78.1182 6.30324 78.1182H26.4033C29.8621 78.1182 32.666 75.3143 32.666 71.8555V6.78517C32.666 3.32637 29.8621 0.522461 26.4033 0.522461Z" stroke="#7592FF"/>
<path d="M102.235 3.16797H82.1353C78.6765 3.16797 75.8726 5.97188 75.8726 9.43068V151.215C75.8726 154.674 78.6765 157.478 82.1353 157.478H102.235C105.694 157.478 108.498 154.674 108.498 151.215V9.43068C108.498 5.97188 105.694 3.16797 102.235 3.16797Z" fill="#7592FF"/>
<path d="M102.235 3.16797H82.1353C78.6765 3.16797 75.8726 5.97188 75.8726 9.43068V151.215C75.8726 154.674 78.6765 157.478 82.1353 157.478H102.235C105.694 157.478 108.498 154.674 108.498 151.215V9.43068C108.498 5.97188 105.694 3.16797 102.235 3.16797Z" stroke="#7592FF"/>
<path d="M16.7939 64.981V85.081C16.7939 88.5398 19.5978 91.3438 23.0566 91.3438H88.1269C91.5857 91.3438 94.3896 88.5398 94.3896 85.081V64.981C94.3896 61.5222 91.5857 58.7183 88.1269 58.7183L23.0566 58.7183C19.5978 58.7183 16.7939 61.5222 16.7939 64.981Z" fill="#7592FF"/>
<path d="M16.7939 64.981V85.081C16.7939 88.5398 19.5978 91.3438 23.0566 91.3438H88.1269C91.5857 91.3438 94.3896 88.5398 94.3896 85.081V64.981C94.3896 61.5222 91.5857 58.7183 88.1269 58.7183L23.0566 58.7183C19.5978 58.7183 16.7939 61.5222 16.7939 64.981Z" stroke="#7592FF"/>
<path d="M369 69.2627V89.3628C369 92.8216 371.804 95.6255 375.263 95.6255H440.333C443.792 95.6255 446.596 92.8216 446.596 89.3628V69.2627C446.596 65.8039 443.792 63 440.333 63L375.263 63C371.804 63 369 65.8039 369 69.2627Z" fill="#7592FF"/>
<path d="M362 7.2627V27.3628C362 30.8216 364.804 33.6255 368.263 33.6255L433.333 33.6255C436.792 33.6255 439.596 30.8216 439.596 27.3628V7.2627C439.596 3.8039 436.792 1 433.333 1L368.263 1C364.804 1 362 3.8039 362 7.2627Z" fill="#7592FF"/>
<path d="M362 131.263V151.363C362 154.822 364.804 157.625 368.263 157.625H433.333C436.792 157.625 439.596 154.822 439.596 151.363V131.263C439.596 127.804 436.792 125 433.333 125H368.263C364.804 125 362 127.804 362 131.263Z" fill="#7592FF"/>
<path d="M447.665 15H427.335C423.836 15 421 17.3258 421 20.1949V137.805C421 140.674 423.836 143 427.335 143H447.665C451.164 143 454 140.674 454 137.805V20.1949C454 17.3258 451.164 15 447.665 15Z" fill="#7592FF"/>
</g>
<defs>
<clipPath id="clip0_1468_96">
<rect width="454" height="158" fill="white"/>
</clipPath>
</defs>
</svg>
