<svg width="456" height="158" viewBox="0 0 456 158" fill="none" xmlns="http://www.w3.org/2000/svg">
<g clip-path="url(#clip0_1467_97)">
<path d="M222.614 41.7015H205.737C204.282 41.7015 203.103 42.881 203.103 44.3359V59.7813C203.103 61.2362 204.282 62.4156 205.737 62.4156H222.614C224.069 62.4156 225.248 61.2362 225.248 59.7813V44.3359C225.248 42.881 224.069 41.7015 222.614 41.7015Z" fill="#465FFF" stroke="#465FFF" stroke-width="0.752667"/>
<path d="M266.263 41.7015H249.386C247.931 41.7015 246.752 42.881 246.752 44.3359V59.7813C246.752 61.2362 247.931 62.4156 249.386 62.4156H266.263C267.718 62.4156 268.897 61.2362 268.897 59.7813V44.3359C268.897 42.881 267.718 41.7015 266.263 41.7015Z" fill="#465FFF" stroke="#465FFF" stroke-width="0.752667"/>
<path d="M277.712 98.2303H260.835C259.38 98.2303 258.201 99.4098 258.201 100.865V116.31C258.201 117.765 259.38 118.944 260.835 118.944H277.712C279.167 118.944 280.346 117.765 280.346 116.31V100.865C280.346 99.4098 279.167 98.2303 277.712 98.2303Z" fill="#465FFF" stroke="#465FFF" stroke-width="0.752667"/>
<path d="M211.165 98.2303H194.288C192.833 98.2303 191.654 99.4098 191.654 100.865V116.31C191.654 117.765 192.833 118.944 194.288 118.944H211.165C212.62 118.944 213.799 117.765 213.799 116.31V100.865C213.799 99.4098 212.62 98.2303 211.165 98.2303Z" fill="#465FFF" stroke="#465FFF" stroke-width="0.752667"/>
<path d="M262.327 82.847H210.03C208.575 82.847 207.396 84.0265 207.396 85.4814V100.927C207.396 102.382 208.575 103.561 210.03 103.561H262.327C263.782 103.561 264.961 102.382 264.961 100.927V85.4814C264.961 84.0265 263.782 82.847 262.327 82.847Z" fill="#465FFF" stroke="#465FFF" stroke-width="0.752667"/>
<path d="M291.231 15.167H180.769C165.305 15.167 152.769 27.703 152.769 43.167V117.478C152.769 132.942 165.305 145.478 180.769 145.478H291.231C306.695 145.478 319.231 132.942 319.231 117.478V43.167C319.231 27.703 306.695 15.167 291.231 15.167Z" stroke="#465FFF" stroke-width="24"/>
<path d="M26.4033 0.522461H6.30324C2.84444 0.522461 0.0405273 3.32637 0.0405273 6.78517V71.8555C0.0405273 75.3143 2.84444 78.1182 6.30324 78.1182H26.4033C29.8621 78.1182 32.666 75.3143 32.666 71.8555V6.78517C32.666 3.32637 29.8621 0.522461 26.4033 0.522461Z" fill="#465FFF"/>
<path d="M26.4033 0.522461H6.30324C2.84444 0.522461 0.0405273 3.32637 0.0405273 6.78517V71.8555C0.0405273 75.3143 2.84444 78.1182 6.30324 78.1182H26.4033C29.8621 78.1182 32.666 75.3143 32.666 71.8555V6.78517C32.666 3.32637 29.8621 0.522461 26.4033 0.522461Z" stroke="#465FFF"/>
<path d="M102.235 3.16748H82.1353C78.6765 3.16748 75.8726 5.97139 75.8726 9.43019V151.215C75.8726 154.674 78.6765 157.477 82.1353 157.477H102.235C105.694 157.477 108.498 154.674 108.498 151.215V9.43019C108.498 5.97139 105.694 3.16748 102.235 3.16748Z" fill="#465FFF"/>
<path d="M102.235 3.16748H82.1353C78.6765 3.16748 75.8726 5.97139 75.8726 9.43019V151.215C75.8726 154.674 78.6765 157.477 82.1353 157.477H102.235C105.694 157.477 108.498 154.674 108.498 151.215V9.43019C108.498 5.97139 105.694 3.16748 102.235 3.16748Z" stroke="#465FFF"/>
<path d="M16.7939 64.9814V85.0815C16.7939 88.5403 19.5979 91.3442 23.0567 91.3442H88.1269C91.5857 91.3442 94.3896 88.5403 94.3896 85.0815V64.9814C94.3896 61.5226 91.5857 58.7187 88.1269 58.7187L23.0567 58.7187C19.5979 58.7187 16.7939 61.5226 16.7939 64.9814Z" fill="#465FFF"/>
<path d="M16.7939 64.9814V85.0815C16.7939 88.5403 19.5979 91.3442 23.0567 91.3442H88.1269C91.5857 91.3442 94.3896 88.5403 94.3896 85.0815V64.9814C94.3896 61.5226 91.5857 58.7187 88.1269 58.7187L23.0567 58.7187C19.5979 58.7187 16.7939 61.5226 16.7939 64.9814Z" stroke="#465FFF"/>
<path d="M371 69.2627V89.3628C371 92.8216 373.804 95.6255 377.263 95.6255H442.333C445.792 95.6255 448.596 92.8216 448.596 89.3628V69.2627C448.596 65.8039 445.792 63 442.333 63L377.263 63C373.804 63 371 65.8039 371 69.2627Z" fill="#465FFF"/>
<path d="M364 7.2627V27.3628C364 30.8216 366.804 33.6255 370.263 33.6255L435.333 33.6255C438.792 33.6255 441.596 30.8216 441.596 27.3628V7.2627C441.596 3.8039 438.792 1 435.333 1L370.263 1C366.804 1 364 3.8039 364 7.2627Z" fill="#465FFF"/>
<path d="M364 131.263V151.363C364 154.822 366.804 157.625 370.263 157.625H435.333C438.792 157.625 441.596 154.822 441.596 151.363V131.263C441.596 127.804 438.792 125 435.333 125H370.263C366.804 125 364 127.804 364 131.263Z" fill="#465FFF"/>
<path d="M449.665 15H429.335C425.836 15 423 17.3258 423 20.1949V137.805C423 140.674 425.836 143 429.335 143H449.665C453.164 143 456 140.674 456 137.805V20.1949C456 17.3258 453.164 15 449.665 15Z" fill="#465FFF"/>
</g>
<defs>
<clipPath id="clip0_1467_97">
<rect width="456" height="158" fill="white"/>
</clipPath>
</defs>
</svg>
